<svg xmlns="http://www.w3.org/2000/svg" xmlns:xlink="http://www.w3.org/1999/xlink" width="2694.897" height="565.725" viewBox="0 0 2694.897 565.725">
  <defs>
    <linearGradient id="linear-gradient" x1="0.5" y1="0.424" x2="0.5" y2="1" gradientUnits="objectBoundingBox">
      <stop offset="0" stop-color="#fff"/>
      <stop offset="1" stop-color="#fff" stop-opacity="0"/>
    </linearGradient>
    <linearGradient id="linear-gradient-2" y1="0.171" xlink:href="#linear-gradient"/>
  </defs>
  <g id="Group_131" data-name="Group 131" transform="translate(613.825 -2185.938)">
    <g id="Group_120" data-name="Group 120" transform="translate(-613.5 2186.303)">
      <line id="Line_9" data-name="Line 9" x1="647.248" y2="553.028" transform="translate(117 0.015)" fill="none" stroke="#ddd" stroke-width="1"/>
      <line id="Line_10" data-name="Line 10" x1="647.248" y2="553.028" transform="translate(234 0.015)" fill="none" stroke="#ddd" stroke-width="1"/>
      <line id="Line_11" data-name="Line 11" x1="647.248" y2="553.028" transform="translate(468 0.015)" fill="none" stroke="#ddd" stroke-width="1"/>
      <line id="Line_36" data-name="Line 36" x1="647.248" y2="553.028" transform="translate(526 0.015)" fill="none" stroke="#ddd" stroke-width="1"/>
      <line id="Line_37" data-name="Line 37" x1="647.248" y2="553.028" transform="translate(585 0.015)" fill="none" stroke="#ddd" stroke-width="1"/>
      <line id="Line_38" data-name="Line 38" x1="647.248" y2="553.028" transform="translate(702 0.015)" fill="none" stroke="#ddd" stroke-width="1"/>
      <line id="Line_39" data-name="Line 39" x1="647.248" y2="553.028" transform="translate(760 0.015)" fill="none" stroke="#ddd" stroke-width="1"/>
      <line id="Line_40" data-name="Line 40" x1="647.248" y2="553.028" transform="translate(819 0.015)" fill="none" stroke="#ddd" stroke-width="1"/>
      <line id="Line_12" data-name="Line 12" x1="647.248" y2="553.028" transform="translate(643 0.015)" fill="none" stroke="#ddd" stroke-width="1"/>
      <line id="Line_13" data-name="Line 13" x1="647.248" y2="553.028" transform="translate(877 0.015)" fill="none" stroke="#ddd" stroke-width="1"/>
      <line id="Line_31" data-name="Line 31" x1="647.248" y2="553.028" transform="translate(58 0.015)" fill="none" stroke="#ddd" stroke-width="1"/>
      <line id="Line_32" data-name="Line 32" x1="647.248" y2="553.028" transform="translate(175 0.015)" fill="none" stroke="#ddd" stroke-width="1"/>
      <line id="Line_33" data-name="Line 33" x1="647.248" y2="553.028" transform="translate(292 0.015)" fill="none" stroke="#ddd" stroke-width="1"/>
      <line id="Line_34" data-name="Line 34" x1="647.248" y2="553.028" transform="translate(351 0.015)" fill="none" stroke="#ddd" stroke-width="1"/>
      <line id="Line_35" data-name="Line 35" x1="647.248" y2="553.028" transform="translate(409 0.015)" fill="none" stroke="#ddd" stroke-width="1"/>
      <line id="Line_9-2" data-name="Line 9" x1="647.248" y2="553.028" transform="translate(1287 0.015)" fill="none" stroke="#ddd" stroke-width="1"/>
      <line id="Line_10-2" data-name="Line 10" x1="647.248" y2="553.028" transform="translate(1404 0.015)" fill="none" stroke="#ddd" stroke-width="1"/>
      <line id="Line_11-2" data-name="Line 11" x1="647.248" y2="553.028" transform="translate(1637 0.015)" fill="none" stroke="#ddd" stroke-width="1"/>
      <line id="Line_36-2" data-name="Line 36" x1="647.248" y2="553.028" transform="translate(1696 0.015)" fill="none" stroke="#ddd" stroke-width="1"/>
      <line id="Line_37-2" data-name="Line 37" x1="647.248" y2="553.028" transform="translate(1754 0.015)" fill="none" stroke="#ddd" stroke-width="1"/>
      <line id="Line_38-2" data-name="Line 38" x1="647.248" y2="553.028" transform="translate(1871 0.015)" fill="none" stroke="#ddd" stroke-width="1"/>
      <line id="Line_39-2" data-name="Line 39" x1="647.248" y2="553.028" transform="translate(1930 0.015)" fill="none" stroke="#ddd" stroke-width="1"/>
      <line id="Line_40-2" data-name="Line 40" x1="647.248" y2="553.028" transform="translate(1988 0.015)" fill="none" stroke="#ddd" stroke-width="1"/>
      <line id="Line_12-2" data-name="Line 12" x1="647.248" y2="553.028" transform="translate(1813 0.015)" fill="none" stroke="#ddd" stroke-width="1"/>
      <line id="Line_13-2" data-name="Line 13" x1="647.248" y2="553.028" transform="translate(2047 0.015)" fill="none" stroke="#ddd" stroke-width="1"/>
      <line id="Line_31-2" data-name="Line 31" x1="647.248" y2="553.028" transform="translate(1228 0.015)" fill="none" stroke="#ddd" stroke-width="1"/>
      <line id="Line_32-2" data-name="Line 32" x1="647.248" y2="553.028" transform="translate(1345 0.015)" fill="none" stroke="#ddd" stroke-width="1"/>
      <line id="Line_33-2" data-name="Line 33" x1="647.248" y2="553.028" transform="translate(1462 0.015)" fill="none" stroke="#ddd" stroke-width="1"/>
      <line id="Line_34-2" data-name="Line 34" x1="647.248" y2="553.028" transform="translate(1521 0.015)" fill="none" stroke="#ddd" stroke-width="1"/>
      <line id="Line_35-2" data-name="Line 35" x1="647.248" y2="553.028" transform="translate(1579 0.015)" fill="none" stroke="#ddd" stroke-width="1"/>
      <line id="Line_7" data-name="Line 7" x1="647.248" y2="553.028" transform="translate(936 0.015)" fill="none" stroke="#ddd" stroke-width="1"/>
      <line id="Line_28" data-name="Line 28" x1="647.248" y2="553.028" transform="translate(994 0.015)" fill="none" stroke="#ddd" stroke-width="1"/>
      <line id="Line_29" data-name="Line 29" x1="647.248" y2="553.028" transform="translate(1053 0.015)" fill="none" stroke="#ddd" stroke-width="1"/>
      <line id="Line_30" data-name="Line 30" x1="647.248" y2="553.028" transform="translate(1170 0.015)" fill="none" stroke="#ddd" stroke-width="1"/>
      <line id="Line_8" data-name="Line 8" x1="647.248" y2="553.028" transform="translate(1111 0.015)" fill="none" stroke="#ddd" stroke-width="1"/>
      <line id="Line_30-2" data-name="Line 30" x1="647.248" y2="553.028" transform="translate(0 0.015)" fill="none" stroke="#ddd" stroke-width="1"/>
      <rect id="Rectangle_41" data-name="Rectangle 41" width="1440" height="239.288" transform="translate(613.5)" fill="url(#linear-gradient)"/>
      <rect id="Rectangle_42" data-name="Rectangle 42" width="1440" height="192.104" transform="translate(2053.5 565.359) rotate(180)" fill="url(#linear-gradient-2)"/>
    </g>
  </g>
</svg>
